<svg version="1.2" xmlns="http://www.w3.org/2000/svg" viewBox="0 0 800 800" width="800" height="800"><style>.a{fill:#3fe48c}</style><path class="a" d="m595 512l97.9-383.3h107.1v-60.3h-153.9l-23.1 90.4-623-0.5 66.2 353.7h528.8zm12.6-293l-59.4 232.7h-431.9l-43.7-233.1z"/><path class="a" d="m512.5 731.6c53.2 0 96.4-43.2 96.4-96.4 0-53.1-43.2-96.3-96.4-96.3h-363c-53.1 0-96.4 43.2-96.4 96.3 0 53.2 43.3 96.4 96.4 96.4 53.1 0 96.3-43.2 96.3-96.4 0-12.7-2.4-24.9-7-36.1h184.4c-4.5 11.2-7 23.4-7 36.1 0 53.2 43.2 96.4 96.3 96.4zm-326.9-96.4c0 19.9-16.2 36.1-36.1 36.1-19.9 0-36.1-16.2-36.1-36.1 0-19.9 16.2-36.1 36.1-36.1 19.9 0 36.1 16.2 36.1 36.1zm363 0c0 19.9-16.2 36.1-36.1 36.1-19.9 0-36.1-16.2-36.1-36.1 0-19.9 16.2-36.1 36.1-36.1 19.9 0 36.1 16.2 36.1 36.1z"/></svg>